<?xml version="1.0" encoding="UTF-8"?>
<svg id="Layer_1" data-name="Layer 1" xmlns="http://www.w3.org/2000/svg" viewBox="0 0 26.3 63.98">
  <defs>
    <style>
      .cls-1 {
        fill: #9fa6b2;
      }
    </style>
  </defs>
  <path class="cls-1" d="M11.58,63.98S0,61.95,0,54.13s5.94-12.05,1.88-15.17c0,0,4.22-.94,4.85,6.73,0,0,5.16-7.2-2.03-15.96C-2.5,20.96.31,15.49,3.6,11.73c3.29-3.75,6.73-6.57,5.48-11.73,0,0,3.29,2.97,2.5,5.94-.78,2.97-8.45,10.48-1.88,14.08,0,0,7.19,2.05,4.22-5.32,0,0,6.26,2.19,7.98,6.73,1.72,4.54,3.44,11.89-8.13,23.46-11.58,11.58-2.19,19.09-2.19,19.09Z"/>
  <path class="cls-1" d="M23.18,38.01c4.45-4.91,2.83-10.74,2.83-10.74"/>
</svg>