<?xml version="1.0" encoding="UTF-8"?>
<svg id="Layer_1" data-name="Layer 1" xmlns="http://www.w3.org/2000/svg" viewBox="0 0 33.46 64">
  <defs>
    <style>
      .cls-1 {
        fill: #9fa6b2;
      }
    </style>
  </defs>
  <path class="cls-1" d="M4.21,58.81s1.64-11.51,6.96-15.66c5.33-4.15,12.03-12.06,13.59-17.58s3.44-16.03-2.59-25.56c0,0-1.89,15.63-14.74,25.34-12.85,9.71-5.66,27.12-3.22,33.46Z"/>
  <path class="cls-1" d="M27.25,31.12s.2-2.26,3.13-5.5,1.87-7.08,1.87-7.08c0,0,2.38,4.81.46,7.52-1.92,2.71-3.63,1.71-5.45,5.06Z"/>
  <path class="cls-1" d="M21.02,50.48s.86-1.31,3.7-2.33c2.84-1.02,3.44-3.71,3.44-3.71,0,0-.11,3.7-2.17,4.73-2.05,1.03-2.77-.14-4.97,1.31Z"/>
  <path class="cls-1" d="M10.72,64s-5.77-4.38-2.22-11.86c3.55-7.48,9.9-9.48,14.35-13.89.72-.71,1.38-1.54,1.97-2.42,0,0,.94,5.28-3.38,8.85-8.41,6.95-11.86,11.91-10.72,19.33Z"/>
</svg>