<?xml version="1.0" encoding="UTF-8"?>
<svg id="Layer_1" data-name="Layer 1" xmlns="http://www.w3.org/2000/svg" viewBox="0 0 36.25 64">
  <defs>
    <style>
      .cls-1 {
        fill: #ae47f0;
      }
    </style>
  </defs>
  <path class="cls-1" d="M27.12,49.46s4.87-3.9,5.6-9.01c.73-5.12,0-11.94,0-11.94,0,0,9.01,16.08-5.6,20.95Z"/>
  <path class="cls-1" d="M6.12,60.08s-4.33-7.31-1.89-13.64,9.99-15.59,8.28-25.09c0,0-2.46,8.2-9.03,15.91-6.56,7.71-2.78,14.29,2.64,22.82Z"/>
  <path class="cls-1" d="M24.56,50.59c-3.65-7.31,18.51-15.91-3.65-50.59,0,0,5.3,19.47-6.82,33.78-10.51,12.41-9.52,27.86,1.41,30.01.51.1,1.01.17,1.51.21h0s-6.58-2.94-5.85-10.49c.73-7.55,4.38-8.82,5.85-13.54,0,0-2.11,10.94,0,15.25,1.43,2.92,6.33,4.12,8.77.97,0,0-.08,5.29-3.21,7.4h0c7.76-1.93,13.68-9.13,13.68-14.87,0,0-8.04,9.18-11.69,1.87Z"/>
</svg>