<?xml version="1.0" encoding="UTF-8"?>
<svg id="Layer_1" data-name="Layer 1" xmlns="http://www.w3.org/2000/svg" viewBox="0 0 35.33 64">
  <defs>
    <style>
      .cls-1 {
        fill: #ae47f0;
      }
    </style>
  </defs>
  <path class="cls-1" d="M34.82,57.81s-1.98-3.89-9.84-8.87c-7.86-4.98-10.97-10.49-11.4-13.22,0,0,9.2,9.17,14.08,9.2,0,0-23-12.39-17.79-34.36,0,0,7.27,15.15,14.99,20.23,7.72,5.08,9.63,21.58,9.96,27.01Z"/>
  <path class="cls-1" d="M8.09,26.71S.75,18.9,1.99,8.79c0,0-7.62,30.73,6.92,40.24,0,0-5.17-.19-7.71-4.72,0,0,2.69,9.27,13.89,11.66s19.16,8.03,19.16,8.03c0,0-.57-8.53-7.49-10.72-10.25-3.24-20.7-5.37-24.02-30.19,0,0,1.74,4.14,5.35,3.61Z"/>
  <path class="cls-1" d="M11.57,0c-.34,2.21.18,5.33,1.26,8.71.06.11,3.26,6.3,6.08,7.89,0,0-3.64-1.65-4.28-3.16,2.91,6.61,7.37,13.09,11.34,14.94,7.02,3.28,9.11,15.49,9.11,15.49C38.21,15.35,11.57,0,11.57,0Z"/>
</svg>