<?xml version="1.0" encoding="UTF-8"?>
<svg id="Layer_1" data-name="Layer 1" xmlns="http://www.w3.org/2000/svg" viewBox="0 0 36.86 64">
  <defs>
    <style>
      .cls-1 {
        fill: #ae47f0;
      }
    </style>
  </defs>
  <path class="cls-1" d="M18.63,64s-6.49-4.92-2.49-13.34c4-8.42,11.14-10.67,16.13-15.62.81-.8,1.55-1.73,2.21-2.73,0,0,1.06,5.93-3.8,9.95-9.45,7.82-13.34,13.4-12.06,21.74Z"/>
  <path class="cls-1" d="M12.29,62.92s-9.99-7.58-3.84-20.54c6.15-12.96,17.15-16.42,24.84-24.05,1.25-1.24,2.38-2.67,3.41-4.2,0,0,1.63,9.14-5.85,15.32-14.56,12.04-20.54,20.63-18.56,33.47Z"/>
  <path class="cls-1" d="M4.67,49.42s.57-11.24,10.17-19.19c0,0,9.83-8.53,8.84-18.22,0,0-.96,6.2-5.72,9.11-4.76,2.91-6.86-14.15,0-21.12,0,0-8.95,6.01-11.51,23.26,0,0-3.91-2.36-1.39-9.13,0,0-3.68,4.81-4.92,14.94-.89,7.31,2.73,9.46,4.53,20.35Z"/>
</svg>