<?xml version="1.0" encoding="UTF-8"?>
<svg id="Layer_1" data-name="Layer 1" xmlns="http://www.w3.org/2000/svg" viewBox="0 0 54.49 61.27">
  <defs>
    <style>
      .cls-1 {
        fill: #ae47f0;
      }
    </style>
  </defs>
  <path class="cls-1" d="M0,60.73V.55h12.26l3.39,36.69L19.01.55h12.38v60.18h-7.37V17.37l-4.62,43.36h-7.23L7.28,17.37v43.36H0Z"/>
  <path class="cls-1" d="M44.56,61.27c-3.22,0-5.68-1.45-7.38-4.36s-2.55-7.11-2.55-12.6V15.73c0-5.15.84-9.06,2.53-11.73,1.69-2.67,4.15-4,7.4-4s5.72,1.33,7.4,4c1.69,2.67,2.53,6.58,2.53,11.73v28.59c0,5.49-.85,9.69-2.55,12.6s-4.16,4.36-7.38,4.36ZM44.63,50.2c1.22,0,1.83-1.77,1.83-5.3V15.52c0-2.96-.59-4.45-1.78-4.45-1.34,0-2.01,1.52-2.01,4.55v29.34c0,1.87.15,3.21.46,4.02.31.81.81,1.21,1.51,1.21Z"/>
</svg>