<?xml version="1.0" encoding="UTF-8"?>
<svg id="Layer_1" data-name="Layer 1" xmlns="http://www.w3.org/2000/svg" viewBox="0 0 42.2 64">
  <defs>
    <style>
      .cls-1 {
        fill: #f2c94c;
      }
    </style>
  </defs>
  <path class="cls-1" d="M36.77,51.75c-.3-3.62-7.39-5.73-3.47-8.9s5.43-12.37,5.43-12.37c0,0-3.28,5.54-5.95,2.87-2.67-2.67-1.59-4.98-1.59-4.98C36.77,15.24,22.74,0,22.74,0c8.3,15.39,1.66,36.81-2.78,31.98-4.44-4.83,2.18-17.65,2.18-17.65,0,0-8.21,7.01-7.24,11.32,1.21,5.36-1.47,8.11-2.87,7.39-2.97-1.54.83-5.43-.9-8.3-1.73-2.87-1.32-6.79-1.32-6.79,0,0-4.71,11.16-4.24,17.29.47,6.13,5.11,11.37,1.04,12.96-4.07,1.59-6.34-8.99-6.34-8.99-2.26,13.73,10.86,21.72,10.86,21.72.88.49,1.75.92,2.59,1.31,0,0-3.23-3.84-2.67-8.47,0,0,.7,3.39,2.67,2.6,1.97-.79.05-4.3-.52-6.22-.57-1.92.68-5.43,2.15-6.9,0,0-1.58,4.07,0,6,1.58,1.92,2.38,3.5,2.38,3.5,0,0,.68-5.65,2.6-8.14,1.92-2.49,2.94-4.41,2.94-6.11,0,0,1.02,3.62-1.7,7.81-2.72,4.19,0,7.47,0,7.47,0,0,5.77,1.7,5.32-4.75,0,0,3.39,7.58,1.02,9.5,0,0,3.62-.45,3.17-3.28,0,0,1.64,6.17-1.44,8.74,4.61-1.28,7.14-3.8,7.14-3.8,4.38-1.96,5.43-11.99,5.43-11.99-.91,3.4-5.43,3.54-5.43,3.54Z"/>
</svg>