<?xml version="1.0" encoding="UTF-8"?>
<svg id="Layer_1" data-name="Layer 1" xmlns="http://www.w3.org/2000/svg" viewBox="0 0 23.62 64">
  <defs>
    <style>
      .cls-1 {
        fill: #7b9acc;
      }
    </style>
  </defs>
  <path class="cls-1" d="M21.8,30.85c0,2.3-2.3,5.29-2.3,5.29C24.67,23.51,13.07,3.8,10.71,0c3.37,6.06-4.4,15.94-6.39,23.03-2.07,7.36,4.6,24.84,4.6,24.84C2.48,40.97,1.56,26.02,1.56,26.02c0,0-4.83,13.8,2.53,25.69,1.14,1.84,2.09,3.68,2.9,5.48.19-1.44.52-2.39.52-2.39,0,0,.39,6.29,3.1,9.19,0,0-2.8-7.35-1.93-10.45.87-3.1,4.35-7.45,2.51-9.96,0,0,6.29,9.58,3.87,15.48,0,0,.97-1.26.97-2.22,0,0,1.28,2.87.51,6.74.82-2.36,1.9-5.13,3.66-8.57,6.64-13.01,1.61-24.15,1.61-24.15Z"/>
</svg>