<?xml version="1.0" encoding="UTF-8"?>
<svg id="Layer_1" data-name="Layer 1" xmlns="http://www.w3.org/2000/svg" viewBox="0 0 36.57 64">
  <defs>
    <style>
      .cls-1 {
        fill: #7b9acc;
      }
    </style>
  </defs>
  <path class="cls-1" d="M18.78,64s-7.24-5.49-2.78-14.88c4.46-9.39,12.42-11.9,18-17.43.9-.9,1.73-1.93,2.47-3.04,0,0,1.18,6.62-4.24,11.1-10.55,8.72-14.88,14.95-13.45,24.25Z"/>
  <path class="cls-1" d="M17.16,43.22c-4.45-5.31-10.24-7.79-14.58-12.1-.9-.9-1.73-1.93-2.47-3.04,0,0-1.18,6.62,4.24,11.1,4.06,3.36,7.2,6.35,9.44,9.28.98-2.04,2.12-3.76,3.37-5.25Z"/>
  <path class="cls-1" d="M30.16,11.63c.89,3.94-4.97,6.44-4.97,6.44C30.16,9.31,20.32,0,20.32,0c0,15.84-14.8,17.77-15.91,29.69,0,0,4.08,1.8,7.52,5.65-.53-.99-1.18-2.21-.84-3.37.69-2.35,2.3-2.89,3.17-3.56.87-.67,1.41-1.95.54-3.36,0,0,4.16,3.69,1.48,6.11-2.68,2.42-2.48,3.56-1.14,4.29,1.34.74,5.91-.07,7.38-5.57,0,0,1.57,4.48.74,7.13,0,0,3.93-4.39,10.33-8.09-.11-8.05-3.42-17.3-3.42-17.3Z"/>
</svg>