<?xml version="1.0" encoding="UTF-8"?>
<svg id="Layer_1" data-name="Layer 1" xmlns="http://www.w3.org/2000/svg" viewBox="0 0 46.03 64">
  <defs>
    <style>
      .cls-1 {
        fill: #800020;
      }
    </style>
  </defs>
  <path class="cls-1" d="M45.37,45.37c-2.77-9.11-2.97-12.48-.99-15.65,0,0-7.53,4.16-6.34,14.27,0,0-2-7.62,1.78-13.87,1.77-2.93-1.03-6.34-1.03-6.34.79,2.97-1.39,7.73-1.58,2.58-.2-5.15-3.57-10.8-3.57-10.8,4.16,14.17-.2,15.41-.2,15.41,2.08-4.59-3.05-16.94-3.05-16.94.57,5.8-.62,6.69-.62,6.69-2.97-2.08-.5-8.82-.89-12.38-.4-3.57-2.34-8.32-2.34-8.32.55,9.21-6.14,9.91-4.76,19.62,0,0-2.38-5.75,0-11.69,0,0-9.11,12.48-2.58,27.34,0,0-6.93-5.75-4.76-16.45,0,0-6.54,8.92-2.38,16.84,4.16,7.93-8.12,9.11-5.35-8.92,0,0-6.74,6.34-6.74,18.23,0,10.99,10.09,18.03,24.6,19.01-7.37-.71-14.04-4.52-14.04-10.28,0-6.43,3.64-9.86,3.64-9.86-1.5,9.75,5.15,9.11,2.89,4.82-2.25-4.29,1.29-9.11,1.29-9.11-1.18,5.79,2.57,8.9,2.57,8.9-3.54-8.04,1.39-14.79,1.39-14.79-1.29,3.22,0,6.32,0,6.32-.75-5.25,2.87-5.63,2.57-10.61,0,0,1.05,2.57,1.26,4.5.21,1.93-1.13,5.57.48,6.7,0,0,.64-.48.33-3.62,0,0,2.77,6.68,1.65,9.16,0,0,2.36-.67.11-8.33,0,0,1.82,3.05,1.93,5.84s1.29.21.86-1.39c0,0,1.52,1.84.56,3.43-2.05,3.38-.96,7.5-.96,7.5-.64-5.47,3.43-7.72,3.43-7.72-1.07,1.71-.96,3.54.54,8.47,1.48,4.85-1.62,9.91-10.51,10.07.19,0,.37,0,.56,0,17.04,0,22.98-9.51,20.21-18.63Z"/>
</svg>