<?xml version="1.0" encoding="UTF-8"?>
<svg id="Layer_1" data-name="Layer 1" xmlns="http://www.w3.org/2000/svg" viewBox="0 0 38.18 64">
  <defs>
    <style>
      .cls-1 {
        fill: #6c5ce7;
      }
    </style>
  </defs>
  <path class="cls-1" d="M35.83,53.56c.54-1.94-1.94-3.34-1.94-3.34,1.87-1.32,1.35-5.81,1.35-5.81-.42,1.66-1.58,2.49-1.58,2.49,3.94-6.07-.52-12-2.34-14.01,1,2.44-1.31,9.89-6.99,7.37-6.55-2.9-4.65-12.03-.03-17.84,4.62-5.81-3.31-22.43-3.31-22.43,3.79,8.69-5.04,19.11-15.26,27.4-10.22,8.3,0,24.06,0,24.06-4-1.24-5.72-4.98-5.72-4.98,2.73,9.96,15.01,16.18,15.01,16.18.24.11.48.21.71.31-.08-.15-2.97-5.4-6.81-7.7,0,0,4.25.39,5.66,2.24-.85-1.24-3.48-5.54-2.26-8.38,1.65-3.81,2.5-5.83,1.18-7.7,0,0,6.74,6.38,5.59,11.36-1.15,4.98,4.06,5.44,4.84,3.42s1.32-6.84-1.09-9.33c0,0,7.62,7.31,3.58,13.3,0,0,4.43-1.01,5.21-3.34,0,0-.37,5.01-2.71,7.17,5.75-2.45,8.26-9.01,9.26-12.86-.87,1.72-2.35,2.43-2.35,2.43Z"/>
</svg>